<svg width="264" height="99" viewBox="0 0 264 99" fill="none" xmlns="http://www.w3.org/2000/svg">
<g clip-path="url(#clip0_307_6)">
<path d="M99.2668 0V99H0.192627V0H99.2668ZM49.7297 12.375C29.2108 12.375 12.5774 28.9964 12.5774 49.5C12.5774 70.0036 29.2108 86.625 49.7297 86.625C70.2486 86.625 86.8821 70.0036 86.8821 49.5C86.8821 28.9964 70.2486 12.375 49.7297 12.375Z" fill="black"/>
</g>
<path d="M234 89.055C222.674 89.055 213.724 85.767 207.148 79.191C200.572 72.615 197.284 63.4817 197.284 51.791C197.284 44.119 198.699 37.4973 201.531 31.926C204.362 26.3546 208.335 22.062 213.45 19.048C218.656 16.034 224.729 14.527 231.671 14.527C241.9 14.527 249.755 17.815 255.235 24.391C260.715 30.967 263.455 40.4657 263.455 52.887C263.455 53.709 263.455 54.531 263.455 55.353C263.455 56.0836 263.409 56.8143 263.318 57.545H216.738C218.564 67.409 225.095 72.341 236.329 72.341C239.799 72.341 243.316 71.93 246.878 71.108C250.531 70.1947 253.728 69.0073 256.468 67.546L259.619 83.027C252.038 87.0456 243.498 89.055 234 89.055ZM216.601 43.023H244.96C244.686 39.0956 243.316 35.9903 240.85 33.707C238.384 31.3323 235.096 30.145 230.986 30.145C227.058 30.145 223.816 31.2867 221.259 33.57C218.793 35.8533 217.24 39.0043 216.601 43.023Z" fill="black"/>
<path d="M116.154 87V16.445H135.06V28.638C137.983 23.706 141.362 20.144 145.198 17.952C149.125 15.6686 153.601 14.527 158.624 14.527C166.205 14.527 172.141 16.8103 176.434 21.377C180.727 25.8523 182.873 32.1086 182.873 40.146V87H163.556V43.16C163.556 39.4153 162.643 36.5383 160.816 34.529C158.989 32.5196 156.523 31.515 153.418 31.515C149.673 31.515 146.157 32.9307 142.869 35.762C139.672 38.502 137.206 41.927 135.471 46.037V87H116.154Z" fill="black"/>
<defs>
<clipPath id="clip0_307_6">
<rect width="100" height="99" fill="white"/>
</clipPath>
</defs>
</svg>
